<?xml version="1.0" standalone="no"?>
<!DOCTYPE svg PUBLIC "-//W3C//DTD SVG 1.1//EN" "http://www.w3.org/Graphics/SVG/1.1/DTD/svg11.dtd" >
<svg xmlns="http://www.w3.org/2000/svg">
<metadata>
Created by FontForge 20120731 at Fri Dec 23 11:31:34 2016
 By admin
</metadata>
<defs>
<font id="crm-iconfont" horiz-adv-x="1024" >
  <font-face 
    font-family="crm-iconfont"
    font-weight="500"
    font-stretch="normal"
    units-per-em="1024"
    panose-1="2 0 6 3 0 0 0 0 0 0"
    ascent="896"
    descent="-128"
    x-height="792"
    bbox="0 -128 1323 896"
    underline-thickness="0"
    underline-position="0"
    unicode-range="U+0078-E790"
  />
<missing-glyph 
 />
    <glyph glyph-name=".notdef" 
 />
    <glyph glyph-name=".notdef" 
 />
    <glyph glyph-name=".null" horiz-adv-x="0" 
 />
    <glyph glyph-name="nonmarkingreturn" horiz-adv-x="341" 
 />
    <glyph glyph-name="x" unicode="x" horiz-adv-x="1001" 
d="M281 543q-27 -1 -53 -1h-83q-18 0 -36.5 -6t-32.5 -18.5t-23 -32t-9 -45.5v-76h912v41q0 16 -0.5 30t-0.5 18q0 13 -5 29t-17 29.5t-31.5 22.5t-49.5 9h-133v-97h-438v97zM955 310v-52q0 -23 0.5 -52t0.5 -58t-10.5 -47.5t-26 -30t-33 -16t-31.5 -4.5q-14 -1 -29.5 -0.5
t-29.5 0.5h-32l-45 128h-439l-44 -128h-29h-34q-20 0 -45 1q-25 0 -41 9.5t-25.5 23t-13.5 29.5t-4 30v167h911zM163 247q-12 0 -21 -8.5t-9 -21.5t9 -21.5t21 -8.5q13 0 22 8.5t9 21.5t-9 21.5t-22 8.5zM316 123q-8 -26 -14 -48q-5 -19 -10.5 -37t-7.5 -25t-3 -15t1 -14.5
t9.5 -10.5t21.5 -4h37h67h81h80h64h36q23 0 34 12t2 38q-5 13 -9.5 30.5t-9.5 34.5q-5 19 -11 39h-368zM336 498v228q0 11 2.5 23t10 21.5t20.5 15.5t34 6h188q31 0 51.5 -14.5t20.5 -52.5v-227h-327z" />
    <glyph glyph-name="crm-shipments-02" unicode="&#xe605;" 
d="M552 778q-1 -2 -7 -2h-229q-6 0 -7 2h243zM846 279q-19 62 -77 92q-10 5 -10 17q1 40 1 120.5v120.5q0 15 -11 26q-38 37 -114 114q-7 6 -12 9h-71q-1 -1 -7 -1h-230q-5 0 -6 1h-10q-4 -1 -11.5 -2t-11.5 -2q-31 -11 -52.5 -39t-21.5 -64v-420q0 -53 44 -89
q29 -24 71 -24h140h121q8 0 14 -6q10 -11 15 -15q39 -28 78 -29q41 -1 53 2q69 18 101 86q8 16 10 44v33q-1 3 -1.5 12t-1.5 14zM610 717l102 -101q-5 0 -28.5 -0.5t-28.5 1.5q-19 3 -31.5 18t-13.5 34v48zM328 332q-10 0 -13.5 -3t-3.5 -14v-13q1 -12 13 -13h39h192h6
q-9 -28 -9 -53q0 -26 9 -53h-7h-234q-33 0 -52.5 19.5t-19.5 52.5v407q0 33 19.5 52.5t51.5 19.5q160 0 239 1q8 0 8 -8v-96q0 -26 16 -42t42 -16h84q6 0 6 -6v-176q0 -7 -7 -6q-70 2 -116 -49q-5 -5 -10 -5q-112 1 -253 1zM698 121q-47 1 -80 35.5t-33 82.5q1 47 35 80.5
t82 33.5q48 -1 82 -35.5t33 -82.5t-35.5 -81.5t-83.5 -32.5zM481 501h-153q-10 0 -13 3.5t-3 12.5v5v5.5v4.5q0 11 11 12h5h308q9 0 12 -3t3 -13v-13q0 -14 -13 -14h-120h-37zM481 395h-152q-11 0 -14 3.5t-3 13.5v14q0 11 11 12h5h307q10 0 13 -3t3 -13v-14q-1 -13 -12 -13
h-39h-119zM701 206q-15 4 -22 -6q-2 0 -2 3v132l0.5 0.5l0.5 0.5q4 11 13 8q10 -2 10 -12v-123v-2v-1v0zM701 206l1.5 0.5t2.5 0.5h79q11 0 14 -10q2 -10 -6 -16q-3 -2 -9 -2h-90q-5 0 -9 2q3 3 8 8.5t7 8.5q4 5 2 8v0zM678 336v-128q0 -7 1 -8q0 -1 -0.5 -2.5l-0.5 -1.5
q-1 -1 -2 0v135q1 4 2 5zM678 192q3 -4 1 -5q-1 -1 -1.5 0t-0.5 2v1t1 2zM678 192q0 -1 -0.5 -1.5t-0.5 -1.5v7h1v-4z" />
    <glyph glyph-name="crm-salesman" unicode="&#xe621;" 
d="M151 12q5 81 42.5 153.5t100.5 122.5l5 4v0q7 4 16 4q31 0 31 -25q0 -15 -11 -24v0l-5 -3q-106 -78 -118 -233v-1v-1v-2q0 -13 -8.5 -22t-21.5 -9q-12 0 -21 8.5t-10 21.5v0v6zM250 538q0 117 82 200t198 83t198 -83t82 -200q0 -63 -26 -119.5t-74 -97.5
q86 -47 139 -130.5t60 -182.5v-5v-1v0v-1q0 -11 -7.5 -19t-18.5 -8t-18.5 8t-7.5 19v1v0l-1 5q-7 94 -60.5 170t-136.5 110q-68 -32 -129 -32q-64 0 -122 28l-28 17l-23 16q-51 40 -79 98.5t-28 123.5v0zM530 312q92 0 158 66.5t66 160t-65.5 159.5t-158.5 66t-158.5 -66
t-65.5 -159.5t65.5 -160t158.5 -66.5v0zM527 -60l-103 98l32 196h139l25 -196zM475 55l50 -47l44 47l-16 131h-56z" />
    <glyph glyph-name="crm-product-01" unicode="&#xe618;" 
d="M513 543q44 0 75.5 31.5t31.5 76t-31.5 76t-75.5 31.5t-75.5 -31.5t-31.5 -76t31.5 -76t75.5 -31.5zM553 714q27 0 46 -19t19 -45.5t-19 -45.5t-46 -19t-45.5 19t-18.5 45.5t18.5 45.5t45.5 19zM908 603l-394 -112l-395 112l-63 -144l63 -26l265 -105l116 143v-576
l-361 101v430l-18 7v-450l394 -111l394 111v474l50 20zM379 342l-308 123l55 124l368 -104zM901 589l43 -106l-361 -140l-54 141zM891 450v-454l-359 -101v554l45 -121zM406 894l-333 -192l46 -99l395 225zM88 697l318 184l85 -53l-367 -209zM968 695l-350 199l-104 -66
l394 -225zM536 829l83 52l333 -190l-48 -73z" />
    <glyph glyph-name="crm-shipments-01" unicode="&#xe658;" horiz-adv-x="1026" 
d="M793 633h34q7 0 11 -6l152 -190q3 -4 3 -9v-233q0 -18 -13 -30.5t-30 -12.5h-53q-5 -41 -34.5 -68.5t-69.5 -30.5v28q32 3 54.5 27t22.5 57t-22.5 57.5t-54.5 27.5v28q40 -3 69.5 -30.5t34.5 -67.5h53q6 0 11 4q4 5 4 11v169h-172v28h172v31l-77 97h-95v28h73l-45 57h-28
v28zM344 778q26 -14 47 -35v0q10 -10 19 -22h154q24 0 40 -16v0q16 -16 16 -39v-33h173v-28h-173v-425h53q6 42 38 70t74 28h8v-28h-8q-35 0 -60 -24.5t-25 -60t25 -60t60 -24.5h8v-28h-8q-42 0 -74.5 28.5t-37.5 70.5h-281q-6 -50 -48 -79v37q21 24 21 55.5t-21 55.5v37
q42 -29 48 -78h200v486q0 11 -8 19v0q-8 8 -20 8h-136q25 -46 25 -99q0 -87 -62 -149q-21 -21 -46 -35v32q15 11 27 23q53 54 53 129.5t-53 128.5v0q-13 12 -28 23v32zM793 548h-33q-18 0 -31.5 -13t-13.5 -32v-95q0 -18 13.5 -31t31.5 -13h33v28h-33q-7 0 -12 4.5t-5 11.5
v95q0 7 5 12t12 5h33v28zM243 805q54 0 101 -27v-32q-46 31 -101 31q-18 0 -34 -3v28q17 3 34 3v0v0zM344 73q-29 -20 -64 -20q-40 0 -71 25v41q25 -39 71 -39q39 0 64 30v-37zM344 442v-32q-47 -26 -101 -26q-17 0 -34 2v28q17 -3 34 -3q55 0 101 32v0v-1zM344 258v-37
q-25 29 -64 29q-46 0 -71 -38v41q31 25 71 25q35 0 64 -20v0v0zM209 548v36l20 17v119q0 10 7 14t13.5 0t6.5 -14v-126q0 -6 -5 -11zM209 78q-35 29 -41 74h-43q-23 0 -39.5 16.5t-16.5 39.5v268q-37 53 -37 118q0 87 62 149q48 48 115 59v-28q-55 -11 -96 -51
q-53 -53 -53 -129t53 -129v0q41 -40 96 -51v-28q-65 11 -113 57v-235q0 -12 8.5 -20t19.5 -8h44q6 44 41 73v-41q-14 -21 -14 -46.5t14 -46.5v-41zM209 584l-22 -18l-19 -17q-8 -6 -6 -14t9 -10t14 3l24 20v36zM209 584z" />
    <glyph glyph-name="crm-receipt-03" unicode="&#xe696;" 
d="M93 -72q-17 0 -32.5 16.5t-15.5 38.5v837q0 21 17.5 36.5t39.5 15.5h726q21 0 35 -15t14 -38v-313l28 -24v337q0 32 -22.5 54.5t-54.5 22.5h-734q-32 0 -54.5 -22.5t-22.5 -54.5v-836q0 -32 22.5 -54.5t54.5 -22.5h369l-35 22h-335zM1005 192q-8 117 -93.5 197.5
t-203.5 80.5q-124 0 -211.5 -87.5t-87.5 -211.5t87.5 -211.5t211.5 -87.5q105 0 187 67q6 4 12 -1l51 -51q4 -4 9.5 -2t5.5 8v175q0 9 -9 9h-176q-5 0 -7.5 -5.5t1.5 -9.5l72 -73q7 -7 0 -13q-65 -49 -146 -49q-104 0 -176 75.5t-67 180.5q5 96 77 164t169 67t167 -69
t73 -166h1v-9q0 -9 9 -9l37 1q9 0 9 9v17q0 2 -2 4zM174 642h301v-23h-301v23zM202 737l103 -99l-16 -16l-103 99zM462 721l-103 -100l-16 17l102 99zM174 490h301v-23h-301v23zM313 633h23v-329h-23v329zM580 181h256v-23h-256v23zM696 298h24v-257h-24v257z" />
    <glyph glyph-name="crm-orderquery-05" unicode="&#xe6d6;" 
d="M348 365q-6 0 -9.5 4t-3.5 9.5t3.5 9.5t9.5 4h72q6 0 9.5 -4t3.5 -9.5t-3.5 -9.5t-9.5 -4h-72zM348 215q-6 0 -9.5 3.5t-3.5 9t3.5 9.5t9.5 4h297q6 0 9.5 -4t3.5 -9.5t-3.5 -9t-9.5 -3.5h-297zM348 514q-6 0 -9.5 4t-3.5 9.5t3.5 9t9.5 3.5h72q6 0 9.5 -3.5t3.5 -9
t-3.5 -9.5t-9.5 -4h-72zM586 306q48 0 89 37q37 37 37 89q0 49 -37 90q-37 37 -89 37q-49 0 -90 -37q-37 -38 -37 -90q0 -49 37 -89q35 -37 90 -37v0zM692 323q-45 -45 -108 -45t-108 44.5t-45 107.5t45 108t108 45t107.5 -44.5t44.5 -108t-44 -107.5v0zM697 298
q-9 10 0.5 19t18.5 0l54 -54q9 -9 -0.5 -18.5t-18.5 0.5zM703 228q0 5 3.5 9t9.5 4t9.5 -4t3.5 -9v-75q0 -16 -11 -28v0q-11 -11 -28 -11h-387q-17 0 -28 11v0q-11 11 -11 28v441q0 17 11 28t28 11h139q-3 4 -3 9.5t3.5 9t9.5 3.5h89q6 0 9.5 -3.5t3.5 -9t-4 -9.5h140
q17 0 28 -11t11 -28v-28q0 -5 -4 -9t-9.5 -4t-9 4t-3.5 9v28q0 6 -4 9.5t-10 3.5h-384q-6 0 -9.5 -3.5t-3.5 -9.5v-441q0 -5 3.5 -9t9.5 -4h385q5 0 9 4v0v0q4 4 4 9v75v0zM636 -64h-250q-88 0 -162.5 43.5t-118 118t-43.5 162.5v250q0 88 43.5 162.5t118 118t162.5 43.5
h250q87 0 162 -43.5t118 -118t43 -162.5v-250q0 -133 -95 -228.5t-228 -95.5v0zM386 817q-127 0 -217 -90t-90 -217v-250q0 -127 90 -217t217 -90h250q127 0 217 90t90 217v250q0 127 -90 217t-217 90h-250z" />
    <glyph glyph-name="crm-product-03" unicode="&#xe611;" 
d="M420 414h-286q-26 0 -44 18t-18 43v287q0 25 18 43t44 18h286q26 0 44 -18t18 -43v-287q0 -25 -18 -43t-44 -18zM134 782q-9 0 -15 -6t-6 -14v-287q0 -8 6 -14t15 -6h286q9 0 15 6t6 14v287q0 8 -6 14t-15 6h-286zM901 414h-286q-26 0 -44 18t-18 43v287q0 25 18 43
t44 18h286q26 0 44 -18t18 -43v-287q0 -25 -18 -43t-44 -18zM615 782q-9 0 -15 -6t-6 -14v-287q0 -8 6 -14t15 -6h286q9 0 15 6t6 14v287q0 8 -6 14t-15 6h-286zM420 -67h-286q-26 0 -44 18t-18 43v287q0 25 18 43t44 18h286q26 0 44 -18t18 -43v-287q0 -25 -18 -43t-44 -18
zM134 301q-9 0 -15 -6t-6 -14v-287q0 -8 6 -14t15 -6h286q9 0 15 6t6 14v287q0 8 -6 14t-15 6h-286zM901 -67h-286q-26 0 -44 18t-18 43v287q0 25 18 43t44 18h286q26 0 44 -18t18 -43v-287q0 -25 -18 -43t-44 -18zM615 301q-9 0 -15 -6t-6 -14v-287q0 -8 6 -14t15 -6h286
q9 0 15 6t6 14v287q0 8 -6 14t-15 6h-286z" />
    <glyph glyph-name="crm-group" unicode="&#xe705;" 
d="M508 844h31q84 -3 155 -32q77 -31 139.5 -88t100.5 -131q48 -93 50 -201v-16q-2 -106 -49 -198q-46 -92 -127 -156q-83 -65 -186 -88q-34 -8 -83 -10h-31q-60 3 -109 17q-131 36 -222 140q-62 71 -92 161q-20 63 -22 134v16q2 131 72 239q74 117 200 173q79 36 173 40v0
v0zM420 746q-36 -45 -64 -124q12 -3 67 -11q51 -5 82 -5v99.5v100.5q-46 -10 -85 -60v0v0zM542 606q58 1 111 9q19 3 37 7q-33 94 -79 143q-32 33 -69 41v-100v-100v0v0zM384 784q-100 -35 -171 -112q48 -26 108 -41q35 105 91 161q-8 -1 -28 -8v0v0zM635 793q4 -4 24 -29
q41 -54 67 -133q59 15 108 41q-83 90 -199 121v0v0zM188 643q-83 -107 -88 -241h184q2 101 26 193q-67 18 -122 48v0v0zM737 595q24 -92 25 -193h185q-6 134 -88 241q-53 -29 -122 -48v0v0zM321 403q17 -1 92.5 -1h91.5v167q-84 1 -159 18q-23 -87 -25 -184v0v0zM542 569
v-167h92t92 1q-2 97 -25 184q-75 -17 -159 -18v0v0zM100 366q6 -134 88 -241q54 30 122 48q-24 92 -26 193h-184v0v0zM321 365q2 -98 25 -184q74 17 159 18v167h-92t-92 -1v0v0zM542 366v-167q83 -1 159 -18q23 91 24 185h-91h-92v0v0zM762 366q-1 -100 -25 -193
q68 -18 122 -48q82 106 88 241h-92.5h-92.5v0v0zM357 146q32 -94 79 -143q32 -33 69 -41v100v100q-79 -1 -148 -16v0v0zM542 162v-100v-100q45 10 85 60q36 45 63 124q-15 4 -68 11q-52 5 -80 5v0v0zM212 96q84 -90 200 -121q-57 58 -91 162q-57 -14 -109 -41v0v0zM726 137
q-35 -105 -91 -162q116 32 199 121q-48 26 -108 41v0v0zM726 137z" />
    <glyph glyph-name="crm-customer" unicode="&#xe790;" horiz-adv-x="1031" 
d="M819 -29q-5 85 -68 133q-6 5 -13.5 10t-13.5 8.5t-15.5 8.5t-14 7.5t-16.5 7.5t-15 6.5t-16.5 7t-15.5 6.5q-5 2 -19 8t-19.5 8.5l-16.5 7.5t-16.5 8.5t-12.5 9t-11 11t-7 11.5q-5 33 0 62v10q19 19 24 38q8 12 20 54q7 4 18 14q15 21 20 55q5 32 -14 51q13 37 17 88
q6 80 -23 123q-19 48 -79 58q-32 38 -106 38v0q-111 0 -164 -68q-56 -82 -20 -236q-19 -19 -14 -51q6 -40 21 -55q10 -10 17 -13q5 -25 18 -52.5t26 -43.5v-10v-62q-6 -12 -23.5 -24.5t-32 -19.5t-46.5 -20q-2 -1 -15.5 -6.5t-16.5 -7t-14.5 -6.5t-16.5 -7.5t-14.5 -7.5
t-15.5 -8.5t-13 -8.5l-14 -10q-63 -53 -68 -133q0 -10 7 -14q7 -6 13 -6h779q7 0 13 6q7 0 7 14v0zM44 -12q11 51 52 82q36 28 109 55q51 19 83 38.5t43 49.5v7q4 27 4 68v21q0 12 -11 17q-9 9 -22 34t-15 51q0 7 -6 12t-11 5q-3 0 -5.5 3t-6.5 13t-5 25q-2 8 -0.5 14t4.5 8
l2 2q11 5 11 24q-26 67 -21 120q0 56 27 88q36 52 134 52q28 0 49 -7.5t26 -20.5q5 -10 13 -10q41 -5 58 -34q15 -24 17 -62t-4 -70t-16 -59q-6 -19 10 -24q7 -7 7 -24q-2 -14 -5.5 -24t-6.5 -13.5t-5 -3.5q-17 0 -17 -17q-2 -25 -14.5 -51.5t-19.5 -33.5q-10 -6 -10 -18
v-20q0 -41 3 -68v-7q6 -17 18 -30.5t32 -24.5t34.5 -17.5t41.5 -16.5q73 -26 109 -54q41 -31 52 -82l-738 3v0zM1017 67q-7 -7 -13 -7h-127q-7 0 -13.5 6.5t-6.5 14t6.5 14t13.5 6.5h103q-11 43 -41 65q-29 24 -89 44q-3 1 -8 3q-29 13 -44 20t-32.5 22t-24.5 33v7
q-4 24 -4 58v17q0 12 11 17q6 7 15.5 27.5t11.5 41.5q0 7 5.5 12t11.5 5q10 0 10 30q0 6 -1.5 11.5t-1.5 6.5q-11 5 -11 23q8 24 13 50.5t3.5 57t-12.5 49.5q-5 22 -41 28q-9 0 -14 10q-15 20 -61 20q-24 0 -34 -3q-8 -2 -14.5 3.5t-9.5 13.5t2 14.5t15 9.5q14 3 41 3v0
q66 0 92 -30q43 -10 68 -45q16 -26 19 -65t-1 -66t-11 -50q14 -21 10 -44q-6 -37 -17 -48q-1 -3 -3.5 -5.5t-5.5 -4.5t-4 -3q-14 -55 -38 -79v-7v-51q5 -11 20 -21t27.5 -15.5t37.5 -14.5q76 -30 103 -51q53 -44 58 -116q-7 -11 -14 -17v0z" />
    <glyph glyph-name="crm-product-02" unicode="&#xe640;" 
d="M527 448q-32 0 -56 12l-306 151q-33 16 -34 45q0 30 34 47l309 157q26 13 60 13q32 0 56 -12l306 -151q33 -16 33 -45t-33 -47l-310 -157q-25 -13 -59 -13zM187 657l307 -151q13 -6 33 -6q22 0 36 7l310 157v1l-306 150q-13 7 -33 7q-22 0 -37 -8l-309 -157h-1v0z
M463 -105q-16 0 -33 8v1l-274 143q-25 12 -41 35.5t-16 45.5v387q0 21 13 34t34 13q16 0 33 -8v-1l274 -143q25 -12 41.5 -35.5t16.5 -45.5v-387q0 -20 -13.5 -33.5t-34.5 -13.5zM453 -51q4 -1 6 -2v382q0 7 -8 18t-21 17v0l-274 144q-3 2 -6 2v-382q0 -7 8.5 -18t20.5 -17
v0l274 -144v0zM611 -105v0q-21 0 -34.5 13.5t-13.5 33.5v387q0 22 16.5 45.5t41.5 35.5l274 144q17 8 33 8q20 0 33.5 -13t13.5 -34v-387q0 -22 -16.5 -45.5t-40.5 -35.5l-275 -144q-17 -8 -32 -8zM918 508l-275 -144q-12 -6 -20.5 -17t-8.5 -18v-382q3 1 7 2l274 144
q12 6 20.5 17t8.5 18v382q-3 0 -6 -2z" />
    <glyph glyph-name="crm-shipments-03" unicode="&#xe61e;" 
d="M946 391q0 86 -33 165.5t-94 141t-141 94.5t-166.5 33t-166 -33t-141 -94.5t-94.5 -141t-33 -165.5q0 -83 30 -159t86 -136t129.5 -96t155.5 -42q6 -1 10.5 3t5 10t-3.5 10.5t-9 4.5q-77 6 -146 39.5t-121.5 89.5t-80 127.5t-27.5 148.5q0 81 30.5 155t88 131.5t132 88
t155.5 30.5t155.5 -30.5t131.5 -88t88 -131.5t31 -155v-9v-1v-2.5t-0.5 -3.5t-0.5 -3q0 -6 4 -10t10 -4.5t10.5 3.5t4.5 10v10v10v0zM644 362l46 -41h-83q-39 0 -66.5 -27.5t-27.5 -66.5v-154q0 -38 27.5 -66t66.5 -28h240q38 0 66 28t28 66v154q0 39 -27.5 66.5t-66.5 27.5
h-83l46 41q10 10 0.5 20.5t-20.5 1.5l-63 -58l-64 58q-11 9 -20.5 -1.5t1.5 -20.5v0zM607 8q-27 0 -46.5 19.5t-19.5 45.5v63h171v-128h-105zM741 8v128h171v-63q0 -26 -19 -45.5t-46 -19.5h-106v0zM912 165h-171v128h106q27 0 46 -19.5t19 -46.5v-62zM712 293v-128h-171v62
q0 27 19.5 46.5t46.5 19.5h105zM539 389v216q0 6 -4 10.5t-10 4.5t-10 -4.5t-4 -10.5v-188h-189q-6 0 -10 -4t-4 -10t4 -10t10 -4h217z" />
    <glyph glyph-name="crm-orderquery-04" unicode="&#xe601;" 
d="M512 -128q-138 0 -256 69t-187 187t-69 256t69 256t187 187t256 69t256 -69t187 -187t69 -256t-69 -256t-187 -187t-256 -69zM512 858q-97 0 -184.5 -37.5t-151 -101t-101 -151t-37.5 -184.5t37.5 -184.5t101 -151t151 -101t184.5 -37.5t184.5 37.5t151 101t101 151
t37.5 184.5t-37.5 184.5t-101 151t-151 101t-184.5 37.5zM288 102q-24 0 -41 17t-17 41v448q0 24 17 41t41 17h448q24 0 41 -17t17 -41v-154q0 -6 -5.5 -12.5t-14.5 -6.5q-6 0 -12.5 5.5t-6.5 13.5v154q0 10 -8 18t-17 8h-448q-10 0 -18 -8t-8 -18v-448q0 -10 8 -18t18 -8
h147q6 0 12.5 -5t6.5 -14q0 -6 -5.5 -12.5t-13.5 -6.5h-141v6zM768 122q-6 0 -13 6l-102 102l-7 -6q-28 -19 -64 -19v0q-40 0 -83 32q-25 38 -25 83t32 77q14 14 35.5 23t40.5 9q48 0 82 -33.5t34 -81.5q0 -36 -20 -64l-6 -7l102 -102q7 -7 7 -13t-7 -13q0 3 -1.5 4.5
t-2.5 1.5l-2 1v0zM589 397q-32 0 -57.5 -25.5t-25.5 -57.5q0 -29 24 -53t52 -24h7q40 0 57 25q11 11 17.5 28t2.5 30q0 29 -22 50.5t-55 26.5v0v0zM346 346q-5 0 -9 4t-4 8v0q0 5 4 9t9 4h51q5 0 9 -4t4 -9v0q0 -4 -4 -8t-9 -4h-51zM346 442q-13 0 -13 19q0 5 4 9t9 4h96
q4 0 8 -4t4 -9q5 -9 -0.5 -14t-11.5 -5h-96zM346 538q-5 0 -9 4t-4 8.5t4 8.5t9 4h332q5 0 9 -4t4 -8.5t-4 -8.5t-9 -4h-332z" />
    <glyph glyph-name="crm-create" unicode="&#xe610;" 
d="M512 1q-104 0 -192 51.5t-139.5 139.5t-51.5 192t51.5 192t139.5 139.5t192 51.5t192 -51.5t139.5 -139.5t51.5 -192t-51.5 -192t-139.5 -139.5t-192 -51.5zM513.5 727q-93.5 0 -173 -46t-125.5 -125.5t-46 -173t46 -173t125.5 -125.5t173 -46t173 46t125.5 125.5t46 173
t-46 173t-125.5 125.5t-173 46zM531 403v153q0 8 -5.5 13.5t-13.5 5.5t-13.5 -5.5t-5.5 -13.5v-153h-153q-8 0 -13.5 -5.5t-5.5 -13.5t5.5 -13.5t13.5 -5.5h153v-153q0 -8 5.5 -13.5t13.5 -5.5t13.5 5.5t5.5 13.5v153h153q8 0 13.5 5.5t5.5 13.5t-5.5 13.5t-13.5 5.5h-153z
" />
    <glyph glyph-name="crm-orderquery-03" unicode="&#xe649;" 
d="M513 -122q-103 0 -197 40t-162 108t-108 162t-40 196.5t40 196.5t108 162t162 108t197 40t196.5 -40t161.5 -108t108.5 -162t40.5 -196.5t-40.5 -196.5t-108.5 -162t-161.5 -108t-196.5 -40zM513 871q-99 0 -189 -38.5t-155.5 -103.5t-104 -155.5t-38.5 -189t38.5 -189
t104 -155.5t155.5 -104t189 -39t189 39t155.5 104t104 155.5t38.5 189t-38.5 189t-104 155.5t-155.5 103.5t-189 38.5zM457 602h41v-21h-31q-6 0 -10.5 -4.5t-4.5 -10.5t4.5 -10.5t10.5 -4.5h92q7 0 11 4.5t4 10.5t-4 10.5t-11 4.5h-31v21h43q6 0 10.5 4.5t4.5 11t-4.5 10.5
t-10.5 4h-114q-7 0 -11 -4t-4 -10.5t4 -11t11 -4.5zM389 450.5q0 -6.5 4 -10.5t11 -4h218q6 0 10.5 4t4.5 10.5t-4.5 11t-10.5 4.5h-218q-7 0 -11 -4.5t-4 -11zM404 354h218q6 0 10.5 4.5t4.5 10.5t-4.5 10.5t-10.5 4.5h-218q-7 0 -11 -4.5t-4 -10.5t4 -10.5t11 -4.5z
M733 232v299q-1 13 -6 24q-9 20 -28 30q-15 8 -30 8v0h-27q-6 0 -10.5 -4t-4.5 -10.5t4.5 -11t10.5 -4.5h27q9 0 17 -5q15 -8 17 -29v-323q0 -16 -11 -27.5t-26 -11.5h-135v-1h-171q-16 0 -27 12t-11 28v322q3 21 18 30q8 5 17 5h26q6 0 10.5 4.5t4.5 10.5t-4.5 10.5
t-10.5 4.5v0h-26h-1q-15 0 -30 -8q-31 -17 -34 -56v-3v-2v-318q0 -29 20 -49.5t48 -20.5l306 1q28 0 47.5 20t19.5 49v26zM402 274h151q5 0 9 4t4 9.5t-4 9.5t-9 4h-151q-5 0 -9 -4t-4 -9.5t4 -9.5t9 -4z" />
    <glyph glyph-name="crm-receipt-02" unicode="&#xe64e;" 
d="M512 888q-103 0 -197 -40t-162 -108t-108.5 -162t-40.5 -197t40.5 -197t108.5 -162t162 -108.5t197 -40.5t197 40.5t162 108.5t108 162t40 197t-40 197t-108 162t-162 108t-197 40zM511.5 -104q-98.5 0 -188 38.5t-154.5 103.5t-103.5 154.5t-38.5 188t38.5 188
t103.5 154.5t154.5 103.5t188 38.5t188 -38.5t154.5 -103.5t103.5 -154.5t38.5 -188t-38.5 -188t-103.5 -154.5t-154.5 -103.5t-188 -38.5zM259 399l240 -279q5 -5 12.5 -5t12.5 5l239 279q7 7 2.5 16t-14.5 9h-102v180q0 18 -13 30.5t-31 12.5h-187q-19 0 -32 -12.5
t-13 -30.5v-180h-101q-10 0 -14.5 -9t1.5 -16v0zM323 394h80v191q0 14 10 23.5t25 9.5h148q15 0 25 -9.5t10 -23.5v-191h80q8 0 11.5 -7t-1.5 -13l-189 -220q-4 -4 -10 -4t-10 4l-189 220q-5 6 -1.5 13t11.5 7v0zM561 318h-99q-6 0 -10.5 4t-4.5 10v0q0 6 4.5 10.5t10.5 4.5
h99q6 0 10.5 -4.5t4.5 -10.5v0q0 -6 -4.5 -10t-10.5 -4zM561 360h-99q-6 0 -10.5 4.5t-4.5 10.5v0q0 6 4.5 10t10.5 4h99q6 0 10.5 -4t4.5 -10v0q0 -6 -4.5 -10.5t-10.5 -4.5zM526 375v-100q0 -6 -4 -10t-10 -4v0q-6 0 -10.5 4t-4.5 10v100q0 6 4.5 10t10.5 4v0q6 0 10 -4
t4 -10zM506 365l-70 70q-10 10 0 20v0q10 11 20 0l71 -70q10 -10 0 -20v0q-10 -11 -21 0zM496 385l71 70q10 11 20 0v0q11 -10 0 -20l-70 -70q-10 -11 -21 0v0q-10 10 0 20z" />
    <glyph glyph-name="crm-orderquery-02" unicode="&#xe606;" horiz-adv-x="1844" 
d="M766 34q37 -42 84 -69q-48 29 -84 69zM851 -35q7 -4 11 -6l-6 3l-6 3h1zM654 627q-7 0 -12 -5.5t-5 -12.5v0q0 -7 5 -12t12 -5h488q7 0 12 5t5 12v0q0 7 -5 12.5t-12 5.5h-488zM1137 50h-479q-45 0 -70.5 25.5t-25.5 71.5v512q0 46 25.5 71.5t70.5 25.5h471
q46 0 71.5 -25.5t25.5 -71.5v-512v-3v-8q0 -7 5.5 -12t12.5 -5h1q7 0 12.5 5t5.5 12v51v487q0 51 -36.5 87.5t-87.5 36.5h-496q-51 0 -87 -36.5t-36 -87.5v-538q0 -51 36 -87.5t87 -36.5h494q8 0 13.5 5.5t5.5 13.5v0q0 8 -5.5 13.5t-13.5 5.5v0zM1318 -4l-169 169
q53 64 53 147q0 96 -68 164t-164 68q-67 0 -122.5 -35t-85.5 -93h-109q-7 0 -12 -5t-5 -12.5t5 -12.5t12 -5h95q-10 -33 -10 -69q0 -55 25 -105h-110q-7 0 -12 -5t-5 -12t5 -12.5t12 -5.5h132q33 -42 81 -67t104 -25q89 0 155 60l168 -169q5 -5 12.5 -5t12.5 5v0q5 6 5 13
t-5 12v0zM970 119q-80 0 -137 56.5t-57 136.5t57 137t137 57t137 -56.5t57 -137t-57 -137t-137 -56.5z" />
    <glyph glyph-name="crm-receipt-01" unicode="&#xe653;" 
d="M958 409q2 91 -32 175t-92.5 145t-140.5 98t-173 38.5t-174.5 -32.5t-144 -93t-97.5 -141.5t-38 -173.5q-3 -119 53.5 -222.5t155.5 -166.5q9 -5 18.5 -2.5t15 10.5t3 18t-10.5 15q-89 56 -139 148.5t-48 198.5q2 109 57 200t147.5 143t200.5 50t199 -57t142.5 -148
t49.5 -202q-2 -104 -53 -193t-139 -143q-9 -5 -11 -14.5t3 -18t15 -11t18 2.5q98 60 155.5 160t59.5 216zM505 -93q16 -11 30 1l85 73q8 6 8.5 16t-6 17.5t-16.5 8.5t-17 -6l-85 -72l30 1l-97 72q-8 6 -18 5t-16 -9t-4.5 -18t9.5 -16zM541 463h170q10 0 17 7t7 17t-7 17
t-17 7h-134l81 97q6 8 5 18t-8.5 16t-17.5 5.5t-17 -8.5l-106 -128h10l-107 128q-6 8 -16 8.5t-17.5 -5.5t-8.5 -16t5 -18l81 -97h-134q-10 0 -17.5 -7t-7.5 -17t7.5 -17t17.5 -7h166v-115h-166q-10 0 -17.5 -7t-7.5 -17t7.5 -17t17.5 -7h166v-132q0 -10 7 -17t17 -7t17 7
t7 17v132h170q10 0 17 7t7 17t-7 17t-17 7h-170v115z" />
    <glyph glyph-name="crm-office" unicode="&#xe676;" 
d="M831 779h-647q-19 0 -33 -14t-14 -33v-336q0 -20 14 -34t33 -14l41 -1v-133h-44q-19 0 -31.5 -17t-12.5 -38v-111q0 -19 15 -31.5t35 -12.5h109q21 0 36 12.5t15 31.5v111q0 21 -12.5 38t-31.5 17h-44v133h232v-133h-44q-19 0 -32 -17t-12 -38v-111q0 -19 12 -31.5
t32 -12.5h122q19 0 31.5 12.5t12.5 31.5v111q0 21 -13 38t-31 17h-45v133h233v-133h-44q-19 0 -32 -17t-13 -38v-111q0 -19 15.5 -31.5t35.5 -12.5h109q20 0 34 14t14 34l3 107q0 21 -13 38t-32 17h-44v133h44q20 0 32.5 14t12.5 35v336q0 19 -14 33t-34 14zM314 170v-111
q0 -22 -11 -22h-122q-11 0 -11 22v100q0 22 11 22h122q8 0 9.5 -1.5t1.5 -9.5zM580 159v-100q0 -22 -11 -22h-122q-11 0 -11 22v100q0 22 11 22h122q11 0 11 -22zM846 170v-111q0 -22 -12 -22h-121q-11 0 -11 22v100q0 22 11 22h121q8 0 10 -1.5t2 -9.5zM192 381q-8 0 -15 7
t-7 15v321q0 8 7 15t15 7h631q8 0 15.5 -7t7.5 -15v-321q0 -8 -7.5 -15t-15.5 -7h-631z" />
    <glyph glyph-name="crm-orderquery-01" unicode="&#xe68e;" 
d="M728 645q0 -9 -6.5 -15.5t-15.5 -6.5h-398q-9 0 -15.5 6.5t-6.5 15.5v0q0 10 6 16t16 6h398q9 0 15.5 -6t6.5 -16v0v0zM728 402q0 -9 -6.5 -15.5t-15.5 -6.5h-398q-9 0 -15.5 6.5t-6.5 15.5v0q0 9 6 15.5t16 6.5h398q9 0 15.5 -6.5t6.5 -15.5v0v0zM518 174
q0 -9 -6.5 -15.5t-15.5 -6.5h-188q-9 0 -15.5 6.5t-6.5 15.5v0q0 9 6 15.5t16 6.5h188q9 0 15.5 -6.5t6.5 -15.5v0v0zM798 895l-587 -1q-54 0 -92 -38.5t-38 -92.5v-761q0 -54 38 -92t92 -38l325 1h1q9 0 16 6.5t7 16.5q0 9 -6.5 15.5t-15.5 6.5v0l-327 -1q-35 0 -60 25
t-25 60v761q0 36 25 61t60 25l587 1q35 0 60 -25t25 -61v-466v-2q0 -9 6.5 -15.5t16 -6.5t16 6.5t6.5 15.5v468q0 54 -38 92.5t-92 38.5v0zM945 -85l-71 73q13 19 19 33q11 27 11 55.5t-11 54.5q-11 27 -32 48t-48 32t-55.5 11t-54.5 -11q-27 -11 -48 -32t-32 -48
q-11 -26 -11 -54.5t11 -55.5t32 -48t48 -32q26 -11 54.5 -11t55.5 11q14 6 31 18l72 -71l3.5 -0.5t8.5 0t9.5 3t7 8.5t0.5 16v0zM840 -6q-34 -34 -82 -34t-82 34t-34 82t34 82t82 34t82 -34t34 -82t-34 -82v0z" />
  </font>
</defs>
</svg>
